<svg width="112" height="118" viewBox="0 0 112 118" fill="none" xmlns="http://www.w3.org/2000/svg">
<g filter="url(#filter0_d_31_1499)">
<mask id="mask0_31_1499" style="mask-type:luminance" maskUnits="userSpaceOnUse" x="29" y="21" width="62" height="68">
<path d="M29.1797 21L29.1797 89H90.8198V21H29.1797Z" fill="white"/>
</mask>
<g mask="url(#mask0_31_1499)">
<path d="M44.6868 22.4045L56.9541 29.4843C56.7603 29.6228 56.5537 29.7517 56.3631 29.8999C56.3359 29.9183 56.3079 29.9455 56.2831 29.9639C56.2582 29.9823 56.203 30.0192 56.1637 30.044C55.7569 30.3211 55.3421 30.6166 54.9449 30.9305C54.9081 30.9577 54.8649 30.9945 54.8248 31.0226L54.3539 31.3821C54.0128 31.6408 53.6621 31.9179 53.3297 32.2037C53.3017 32.2222 53.2833 32.2502 53.2561 32.2686C53.0959 32.3975 52.9422 32.5273 52.7852 32.669C52.7582 32.6877 52.7332 32.7093 52.7107 32.7331C52.3904 32.9917 52.0557 33.2776 51.7418 33.5731L51.7145 33.6011C51.5664 33.7301 51.419 33.8598 51.2805 33.9975C50.9386 34.293 50.5974 34.6165 50.2835 34.9392C50.2283 34.9945 50.173 35.0409 50.1178 35.0994C49.988 35.2195 49.8775 35.3396 49.767 35.4598C49.6005 35.6199 49.4467 35.7641 49.2962 35.9306C49.176 36.0499 49.0559 36.1797 48.9454 36.3086C48.9089 36.3399 48.8749 36.3739 48.8437 36.4103C48.6771 36.5857 48.5114 36.761 48.3632 36.9364C48.3176 36.9917 48.2623 37.0381 48.2159 37.0966C47.9668 37.3552 47.7266 37.6323 47.4952 37.8974C47.3566 38.0631 47.2181 38.2177 47.0892 38.3867C47.0708 38.4051 47.0611 38.4235 47.0427 38.4419C46.7288 38.8015 46.4245 39.1626 46.1378 39.5406C46.0922 39.6047 46.0369 39.6695 45.9817 39.7432C45.6029 40.2237 45.2425 40.7041 44.8918 41.1926C44.698 41.4601 44.5042 41.7372 44.3104 42.0142C44.1166 42.2913 43.9325 42.5676 43.7499 42.8447C43.5673 43.1217 43.3807 43.4052 43.2053 43.6943C43.03 43.9834 42.845 44.2549 42.6792 44.5527C42.4942 44.8386 42.3285 45.1245 42.1619 45.42C41.9953 45.7155 41.8296 46.0014 41.6726 46.3009C41.5157 46.6004 41.3523 46.8919 41.1921 47.1962C41.032 47.5005 40.8878 47.7968 40.7397 48.1011C40.5739 48.4422 40.4074 48.7745 40.2504 49.1165C40.0382 49.5777 39.8356 50.0398 39.6322 50.5098C39.448 50.9439 39.2726 51.3907 39.0965 51.8303C38.829 52.5222 38.5712 53.2237 38.3397 53.9348C38.2108 54.3224 38.0819 54.71 37.9618 55.1072L37.9521 55.116C37.8969 55.3098 37.832 55.5164 37.7768 55.707C37.4565 55.8735 37.1305 56.0489 36.8078 56.2243C36.7798 56.2427 36.7429 56.2611 36.7157 56.2795C36.023 56.6575 35.3487 57.0547 34.6753 57.4807C34.6384 57.4991 34.6016 57.5272 34.5648 57.5456C34.2509 57.7394 33.9369 57.946 33.6326 58.155C33.2907 58.376 32.9584 58.5978 32.6357 58.8285C32.3129 59.0591 31.9798 59.2905 31.6571 59.5299C31.3344 59.7694 31.0108 60.0008 30.6961 60.2507C30.4006 60.4813 30.1148 60.7031 29.8281 60.9337C29.8016 60.9531 29.777 60.9748 29.7544 60.9986L29.7272 61.0266C29.7176 61.045 29.7088 61.045 29.6992 61.0539C29.6802 61.061 29.664 61.0739 29.6527 61.0907C29.6439 61.1003 29.6343 61.1091 29.6255 61.1091L29.6159 61.1187C29.4685 61.2388 29.33 61.359 29.1826 61.4783L29.1826 31.3685C29.1786 29.5524 29.6534 27.7673 30.5593 26.1932C31.4651 24.619 32.7699 23.3116 34.3422 22.4025C35.9145 21.4936 37.6986 21.0151 39.5147 21.0154C41.3309 21.0157 43.1148 21.4948 44.6868 22.4045Z" fill="url(#paint0_linear_31_1499)"/>
<path d="M37.773 55.6992C37.7177 55.893 37.6625 56.0868 37.6128 56.2806C36.4111 60.505 35.8052 64.8766 35.8127 69.2686C35.8121 71.4327 35.9571 73.5943 36.2467 75.739C36.3484 76.4773 36.4589 77.1972 36.5886 77.9171C36.607 78.0285 36.6343 78.1478 36.6527 78.2591C36.8128 79.0807 36.985 79.8831 37.1788 80.6863C37.1809 80.7058 37.1872 80.7246 37.1972 80.7415C37.7842 83.1391 38.5558 85.4876 39.5051 87.7661C39.6532 88.1168 39.8102 88.4772 39.9575 88.8183C39.9768 88.8596 39.9985 88.8997 40.0224 88.9384C40.0273 88.9544 40.0335 88.9699 40.0408 88.9849C38.6397 89.057 37.2386 88.8429 35.9229 88.3558C34.6072 87.8686 33.4046 87.1186 32.3883 86.1513C31.372 85.1841 30.5633 84.02 30.0117 82.73C29.4601 81.4401 29.177 80.0513 29.1797 78.6483V61.4697C29.3271 61.3504 29.4656 61.2295 29.6129 61.1101L29.6225 61.1005C29.6314 61.1005 29.641 61.0917 29.6498 61.0821C29.661 61.0653 29.6773 61.0524 29.6962 61.0453C29.7124 61.0247 29.7309 61.0061 29.7515 60.99C31.9547 59.1914 34.3151 57.5944 36.804 56.2181C37.1268 56.0411 37.4503 55.8658 37.773 55.6992Z" fill="url(#paint1_linear_31_1499)"/>
<path d="M56.9548 29.4843L85.6616 46.0559C86.9773 46.8073 88.1091 47.8427 88.9746 49.0864C89.84 50.3302 90.4175 51.7512 90.6649 53.2462C90.6636 53.2591 90.6667 53.2721 90.6737 53.2829C91.1105 55.8347 90.5809 58.4576 89.1882 60.6399C88.9112 60.4181 88.6277 60.1971 88.3386 59.9848C88.3273 59.9742 88.315 59.9648 88.3018 59.9568C88.2834 59.9384 88.2465 59.9104 88.2001 59.8767C81.1936 54.6021 72.8617 51.3739 64.1305 50.551C55.3993 49.728 46.6109 51.3426 38.7424 55.2153C38.4221 55.3754 38.097 55.5356 37.7734 55.7046C37.8287 55.5108 37.8936 55.3042 37.9488 55.1136L37.9584 55.1047C38.0785 54.7043 38.2075 54.32 38.3364 53.9325C38.5678 53.2214 38.8257 52.5199 39.0931 51.828C39.2693 51.3851 39.4447 50.9414 39.6289 50.5074C39.8323 50.0373 40.0349 49.5754 40.2471 49.1141C40.4072 48.7722 40.5674 48.4398 40.7364 48.0987C40.8845 47.7944 41.0319 47.4892 41.1888 47.1937C41.3458 46.8982 41.5027 46.594 41.6693 46.2985C41.8359 46.003 41.9896 45.7171 42.1586 45.4177C42.3275 45.1182 42.5005 44.8363 42.6759 44.5504C42.8513 44.2645 43.017 43.9682 43.202 43.6919C43.387 43.4157 43.5616 43.1194 43.7465 42.8423C43.9315 42.5652 44.1157 42.289 44.3071 42.0119C44.4985 41.7348 44.6947 41.4577 44.8885 41.1903C45.2392 40.701 45.6092 40.2117 45.9783 39.7408C46.0336 39.6672 46.0889 39.6022 46.1345 39.5382C46.43 39.1682 46.7255 38.7991 47.0394 38.4396C47.0578 38.4211 47.0674 38.4027 47.0858 38.3843C47.2148 38.2177 47.3533 38.0639 47.4918 37.8949C47.7225 37.628 47.9627 37.3611 48.2126 37.0941C48.259 37.0389 48.3143 36.9925 48.3599 36.9341C48.508 36.7587 48.6738 36.5833 48.8404 36.4079C48.8716 36.3714 48.9056 36.3375 48.9421 36.3062C49.0526 36.1773 49.1727 36.0572 49.2928 35.9283C49.4402 35.7617 49.5971 35.6144 49.7637 35.4574C49.8742 35.3373 49.9943 35.2172 50.1144 35.0971C50.1697 35.0418 50.2249 34.9953 50.2802 34.9368C50.6037 34.6165 50.936 34.3026 51.2772 33.9952C51.4157 33.8573 51.5631 33.7277 51.7112 33.5988L51.7384 33.5707C52.0523 33.2849 52.3791 32.9989 52.7074 32.7306C52.73 32.7069 52.7549 32.6854 52.7819 32.6666C52.942 32.5281 53.0958 32.3984 53.2527 32.2663C53.28 32.2478 53.2984 32.2198 53.3264 32.2014C53.6587 31.9243 53.9999 31.648 54.3506 31.3798L54.8215 31.0202C54.8583 30.9922 54.9016 30.9554 54.9416 30.9281C55.3388 30.6329 55.745 30.3374 56.1604 30.0417C56.1972 30.0136 56.2405 29.9864 56.2797 29.9616C56.319 29.9368 56.3358 29.9159 56.3598 29.8974C56.5576 29.7517 56.761 29.6228 56.9548 29.4843Z" fill="url(#paint2_linear_31_1499)"/>
<path d="M59.6871 50.3365C69.9771 50.3195 79.9903 53.6681 88.2001 59.8716C88.2465 59.9084 88.2802 59.9364 88.3018 59.9516C88.315 59.9596 88.3274 59.969 88.3386 59.9796C88.6253 60.1918 88.9112 60.4128 89.1883 60.6347C88.8581 61.1477 88.4808 61.6289 88.0615 62.0721C88.0542 62.0803 88.048 62.0895 88.0431 62.0993H88.0343C87.3381 62.8303 86.5388 63.4554 85.6616 63.9548L44.6875 87.6094C43.9738 88.0214 43.215 88.3497 42.4261 88.5879C42.4143 88.5927 42.4019 88.5959 42.3892 88.5975C41.6259 88.8198 40.8387 88.9499 40.0445 88.9851C40.0371 88.9701 40.031 88.9546 40.0261 88.9387C40.0146 88.9248 40.0052 88.9095 39.9981 88.893C39.9897 88.8664 39.9773 88.8413 39.9612 88.8185C39.8139 88.4774 39.6569 88.117 39.5088 87.7663C39.2878 87.2324 39.0742 86.6972 38.8681 86.1607C38.8401 86.0958 38.8217 86.031 38.7945 85.9669C38.4157 84.9419 38.0649 83.8897 37.7534 82.8286C37.7262 82.7357 37.6982 82.634 37.6734 82.542C37.6569 82.497 37.6446 82.4506 37.6365 82.4034C37.4764 81.8501 37.341 81.2959 37.2025 80.7417C37.1925 80.7249 37.1862 80.706 37.1841 80.6865C36.9903 79.8857 36.8149 79.0809 36.658 78.2593C36.6395 78.148 36.6123 78.0286 36.5939 77.9173C36.5386 77.6034 36.4826 77.2895 36.4337 76.9668C36.4241 76.93 36.4153 76.8867 36.4057 76.8379C36.3505 76.4687 36.304 76.1083 36.2456 75.7392L36.1903 75.2868C36.135 74.908 36.0982 74.53 36.0614 74.1424C36.0149 73.6988 35.9685 73.2559 35.9412 72.8035C35.9228 72.5632 35.9044 72.3327 35.9044 72.0933C35.886 71.9083 35.8764 71.7144 35.8676 71.5326C35.8492 71.2644 35.8396 70.9881 35.8396 70.711C35.8209 70.2305 35.8115 69.7501 35.8115 69.2697C35.8115 68.5305 35.8299 67.7921 35.8676 67.0634C35.8764 66.6294 35.9044 66.1954 35.9412 65.7709C35.9781 65.2632 36.0149 64.7644 36.0702 64.2759C36.107 63.906 36.1503 63.5463 36.1999 63.186C36.2271 62.9457 36.2552 62.6967 36.292 62.4573C36.3657 61.9496 36.4487 61.4424 36.541 60.9358C36.6211 60.4281 36.726 59.9204 36.8365 59.4215C36.947 58.8953 37.0672 58.3604 37.1961 57.8431C37.325 57.3258 37.4643 56.8021 37.6117 56.2832C37.6581 56.0894 37.7134 55.8957 37.7719 55.7019C38.0922 55.5361 38.4181 55.3695 38.7408 55.2125C45.2543 51.9958 52.4227 50.3271 59.6871 50.3365Z" fill="url(#paint3_linear_31_1499)"/>
<g style="mix-blend-mode:multiply" opacity="0.3">
<path d="M56.2808 29.9602C56.1888 30.0339 56.0686 30.1356 55.9301 30.2469C55.5521 30.56 54.998 31.0037 54.3061 31.6035C53.6134 32.1848 52.8014 32.9416 51.8877 33.8096C51.0012 34.7049 50.0139 35.7387 48.9888 36.9015C47.983 38.0739 46.9124 39.3663 45.897 40.8158C43.6665 43.9329 41.7959 47.2926 40.3211 50.8305C39.9207 51.7634 39.5739 52.7139 39.2416 53.6645C39.075 54.1634 38.8997 54.6895 38.7427 55.206C38.5954 55.6865 38.4568 56.1669 38.3279 56.6186C37.244 60.4872 36.6333 64.473 36.5093 68.4887C36.4609 70.3453 36.5071 72.2031 36.6478 74.055C36.7864 75.8167 36.9986 77.4792 37.2661 79.0023C37.6927 81.4735 38.3036 83.9093 39.0935 86.2895C39.5924 87.803 39.9431 88.7263 40.0264 88.9385C40.0149 88.9247 40.0055 88.9093 39.9984 88.8929C35.4397 78.7084 34.5715 67.254 37.543 56.4988C40.5146 45.7436 47.1402 36.3597 56.2808 29.9602Z" fill="black"/>
</g>
<g style="mix-blend-mode:overlay" opacity="0.3">
<path d="M56.4741 29.8073C56.4461 29.8353 56.4093 29.8625 56.3628 29.9002C56.3356 29.9186 56.3076 29.9458 56.2828 29.9642C55.7943 30.2966 55.305 30.6473 54.8245 31.0261L54.3536 31.3856C53.9845 31.6627 53.6153 31.9582 53.2558 32.2721C53.0956 32.4011 52.9419 32.5308 52.7849 32.6725C52.4245 32.9584 52.0642 33.2723 51.7142 33.6046C51.5661 33.7336 51.4187 33.8633 51.2802 34.001C50.9383 34.2965 50.5971 34.62 50.2832 34.9428C50.1017 35.1056 49.9293 35.2784 49.7667 35.4601C49.4344 35.774 49.1261 36.0879 48.8434 36.4106C48.6768 36.586 48.5111 36.7614 48.3629 36.9367C48.0586 37.2506 47.7727 37.5774 47.4957 37.8977C47.3571 38.0634 47.2186 38.218 47.0897 38.387C46.7573 38.7649 46.4434 39.1437 46.1383 39.5409C46.0927 39.605 46.0374 39.6698 45.9822 39.7435C45.6034 40.224 45.243 40.7045 44.8923 41.1929C44.6985 41.4604 44.5047 41.7375 44.3109 42.0146C44.1171 42.2916 43.933 42.5679 43.7504 42.845C43.5678 43.122 43.3812 43.4055 43.2058 43.6946C43.0305 43.9837 42.8455 44.2552 42.6797 44.5531C42.4947 44.8389 42.329 45.1248 42.1624 45.4203C41.9958 45.7158 41.8301 46.0017 41.6731 46.3012C41.5162 46.6007 41.3528 46.8922 41.1926 47.1965C41.0325 47.5008 40.8883 47.7971 40.7402 48.1014C40.5744 48.4425 40.4079 48.7748 40.2509 49.1168C40.0387 49.578 39.8361 50.0401 39.6327 50.5101C38.999 52.0136 38.4414 53.548 37.9623 55.1075L37.9526 55.1163C37.8974 55.3101 37.8325 55.5167 37.7773 55.7073C37.722 55.8979 37.6668 56.0949 37.6171 56.2887C36.4153 60.5131 35.8094 64.8847 35.8169 69.2767C35.8164 71.4408 35.9614 73.6025 36.2509 75.7471C36.3526 76.4854 36.4631 77.2053 36.5929 77.9252C36.6113 78.0366 36.6385 78.1559 36.6569 78.2672C36.8171 79.0888 36.9893 79.8912 37.1831 80.6944C37.1852 80.7139 37.1914 80.7327 37.2015 80.7496C37.7884 83.1472 38.56 85.4957 39.5094 87.7742C39.6575 88.1249 39.8145 88.4853 39.9618 88.8264L39.7128 88.3283C39.491 87.8943 39.1682 87.2481 38.8079 86.4064C37.7997 84.0766 36.9907 81.6656 36.3895 79.1993C35.5504 75.6922 35.1289 72.098 35.1338 68.4919C35.1385 66.4516 35.2744 64.4136 35.5406 62.3907C35.8302 60.3105 36.2525 58.2509 36.8051 56.2246C36.8139 56.215 36.8139 56.215 36.8139 56.2062C37.119 55.1531 37.4329 54.2042 37.7749 53.1968C38.1352 52.1998 38.5132 51.2028 38.9288 50.2523C39.7316 48.3808 40.663 46.5673 41.7164 44.8245C42.6906 43.1881 43.773 41.6186 44.9564 40.1263C46.0085 38.7858 47.1365 37.5068 48.3349 36.2953C48.8882 35.7347 49.4424 35.215 49.9597 34.7265C50.5042 34.2557 51.0119 33.812 51.5012 33.3876C52.4974 32.594 53.3743 31.9014 54.1222 31.3752C54.8517 30.8219 55.4796 30.4615 55.884 30.1941C56.1971 29.9827 56.3909 29.8537 56.4741 29.8073Z" fill="white"/>
</g>
<g style="mix-blend-mode:multiply" opacity="0.3">
<path d="M59.6877 50.3365C69.9777 50.3195 79.9909 53.668 88.2007 59.8715C88.2471 59.9083 88.2807 59.9364 88.3024 59.9516C88.2287 59.9051 88.0349 59.785 87.7418 59.5912C87.3542 59.3422 86.7809 58.973 86.0433 58.5302C84.0107 57.2901 81.8914 56.1979 79.7019 55.2622C78.3541 54.6808 76.8679 54.1082 75.2711 53.5805C73.5942 53.0381 71.8905 52.5821 70.1668 52.2143C68.3297 51.8202 66.4711 51.5335 64.6005 51.3559C63.65 51.2454 62.6899 51.2085 61.7297 51.1437C60.7423 51.1349 59.7734 51.098 58.8036 51.1253C54.9827 51.192 51.1822 51.7001 47.478 52.6396C45.7059 53.1008 44.0162 53.6269 42.4378 54.2083C40.8595 54.7897 39.41 55.4095 38.0623 56.0549C37.915 56.1286 37.7676 56.1935 37.6195 56.276C35.626 57.2338 33.7014 58.3287 31.8594 59.5528C30.6878 60.3288 29.9375 60.8733 29.6973 61.0391C29.7134 61.0185 29.732 61 29.7525 60.9838C32.2406 58.954 34.9282 57.1819 37.774 55.6946C38.0943 55.5288 38.4203 55.3623 38.743 55.2053C45.2565 51.9913 52.4244 50.3251 59.6877 50.3365Z" fill="black"/>
</g>
<g style="mix-blend-mode:overlay" opacity="0.3">
<path d="M58.7638 49.5696C59.7792 49.5423 60.785 49.588 61.7636 49.6064C62.7702 49.6809 63.776 49.7265 64.7642 49.8562C66.69 50.0613 68.5992 50.4006 70.4778 50.8716C72.2379 51.2936 73.9678 51.8332 75.6557 52.4868C77.1697 53.0552 78.6492 53.7116 80.0865 54.4528C81.2996 55.0708 82.4797 55.7517 83.622 56.4924C84.6374 57.157 85.5143 57.748 86.2062 58.2838C86.9173 58.7819 87.425 59.2447 87.7941 59.5298C87.9791 59.6771 88.108 59.7877 88.2001 59.8709C81.1937 54.5964 72.8618 51.3681 64.1306 50.5452C55.3994 49.7223 46.6109 51.3369 38.7424 55.2095C38.4221 55.3697 38.097 55.5298 37.7735 55.6988C34.9277 57.1861 32.2401 58.9583 29.752 60.988C29.832 60.908 29.9738 60.7846 30.1395 60.6277C30.4903 60.3146 30.9892 59.8525 31.6723 59.3176C33.5496 57.8024 35.5502 56.4467 37.6534 55.2648C37.7551 55.2095 37.8472 55.1543 37.9489 55.1046L37.9585 55.0958C39.269 54.3672 40.6185 53.7108 42.0009 53.1299C43.6665 52.4193 45.3744 51.8119 47.1147 51.3113C48.9785 50.7775 50.8747 50.3643 52.7915 50.0741C54.7696 49.7802 56.7644 49.6116 58.7638 49.5696Z" fill="white"/>
</g>
<g style="mix-blend-mode:overlay" opacity="0.25">
<path d="M43.7629 24.0019L53.5661 29.6603L53.2242 29.919C52.8366 30.2137 52.4306 30.5372 52.043 30.8799C51.9133 30.9816 51.7564 31.1113 51.5994 31.2587C51.1947 31.5735 50.8065 31.9093 50.4366 32.2645C50.3165 32.3662 50.1692 32.5047 50.021 32.6433C49.6703 32.9476 49.3195 33.2839 48.9968 33.6122C48.7934 33.7969 48.6088 33.9816 48.4427 34.1664C48.0919 34.5075 47.7692 34.8398 47.4553 35.1818C47.3168 35.3291 47.1502 35.514 46.9932 35.6894C46.6793 36.0217 46.3846 36.3541 46.0892 36.6953L45.941 36.8618C45.8489 36.9819 45.7568 37.0925 45.6647 37.203C45.314 37.6034 44.9905 37.9974 44.6677 38.4122L44.5012 38.6244C44.132 39.1048 43.754 39.6029 43.3937 40.1106C43.1999 40.3693 43.0149 40.6464 42.8211 40.9114C42.6001 41.2317 42.4151 41.5111 42.2309 41.7922C42.0091 42.1125 41.8153 42.4201 41.6215 42.734C41.4614 42.9743 41.2708 43.2786 41.0954 43.6013C40.9016 43.8968 40.7263 44.2018 40.5509 44.5157L40.4308 44.7184C40.3018 44.9586 40.1633 45.1893 40.0304 45.4295C39.8702 45.7066 39.71 46.0197 39.5411 46.3432C39.3937 46.6203 39.2456 46.9245 39.0982 47.2288L38.9693 47.4971C38.8892 47.6629 38.8028 47.8295 38.7291 47.9952C35.5436 50.6804 32.9264 53.9747 31.0311 57.6848L31.0215 57.6943L31.0215 31.3596C31.0185 29.8676 31.4089 28.4014 32.1534 27.1085C32.898 25.8156 33.9703 24.742 35.2622 23.9959C36.5541 23.2497 38.02 22.8575 39.5119 22.8587C41.0037 22.8599 42.4689 23.2545 43.7597 24.0027L43.7629 24.0019Z" fill="white"/>
</g>
<g style="mix-blend-mode:overlay" opacity="0.25">
<path d="M80.5752 45.2505C64.6987 38.4101 53.2986 39.7947 45.4717 43.5792C45.591 43.4039 45.7023 43.2381 45.8224 43.0715C46.025 42.7768 46.21 42.5182 46.383 42.2707C46.7241 41.7999 47.0749 41.329 47.424 40.8862C47.424 40.8862 47.5906 40.6732 47.6362 40.6091C47.8668 40.3136 48.1623 39.9533 48.4674 39.6025L48.5411 39.5224C48.6148 39.4303 48.6885 39.3382 48.7629 39.255L48.9103 39.0796C49.1409 38.8025 49.3996 38.5078 49.6766 38.2211L49.7687 38.1291C49.8977 37.9817 50.0362 37.8336 50.1747 37.6766C50.4702 37.3627 50.7473 37.0768 51.0516 36.7813L51.1317 36.7012C51.2508 36.5653 51.3773 36.4359 51.5104 36.3137C51.8796 35.9541 52.1839 35.6674 52.4978 35.3815L52.5779 35.3079C52.6819 35.202 52.7929 35.1033 52.9102 35.0124C53.2794 34.6704 53.6117 34.3717 53.9441 34.0987C54.1378 33.9385 54.2764 33.8216 54.4149 33.7111C54.7747 33.4057 55.1255 33.1195 55.4672 32.8526L55.9284 32.5019C56.2976 32.2336 56.6667 31.9566 57.0495 31.6803L80.5752 45.2505Z" fill="white"/>
</g>
<g style="mix-blend-mode:overlay" opacity="0.5">
<path d="M44.687 22.4046L56.9543 29.4844L85.6611 46.056C86.9769 46.8075 88.1086 47.8428 88.9741 49.0866C89.8396 50.3304 90.4171 51.7514 90.6644 53.2463C90.618 53.0525 90.5443 52.7658 90.4426 52.4159C90.0341 51.0393 89.3407 49.7642 88.4072 48.6731C87.4738 47.5821 86.3212 46.6997 85.0245 46.0832C83.2155 45.1046 81.1751 43.9971 78.9601 42.8C74.5205 40.372 69.3698 37.5107 63.8588 34.4093C61.3667 32.9967 58.7914 31.5472 56.1712 30.061L56.1624 30.0522C56.1485 30.0499 56.1357 30.0434 56.1255 30.0337C55.8757 29.8952 55.6362 29.7567 55.3864 29.6181C52.5164 27.9661 49.5895 26.2956 46.6642 24.6156L44.4852 23.3503C43.8078 22.9523 43.09 22.6275 42.3439 22.3814C40.9001 21.9107 39.3629 21.8007 37.8667 22.0611C36.3805 22.3312 34.9756 22.9373 33.7594 23.8332C32.5716 24.7146 31.6124 25.8679 30.9623 27.1965C30.3332 28.4833 29.9864 29.8897 29.9453 31.3214C29.918 32.8429 29.89 34.33 29.8716 35.7706C29.8163 38.6687 29.7611 41.4098 29.7058 43.9299C29.6041 48.9885 29.4376 53.1974 29.3551 56.1419L29.1797 60.7761L29.1797 31.3582C29.1772 29.5425 29.6533 27.7582 30.56 26.1851C31.4668 24.612 32.7721 23.3057 34.3446 22.3978C35.917 21.4899 37.701 21.0125 39.5167 21.0137C41.3324 21.0148 43.1158 21.4946 44.687 22.4046Z" fill="white"/>
</g>
<g style="mix-blend-mode:multiply" opacity="0.3">
<path d="M88.0338 62.0958C87.3376 62.8267 86.5382 63.4518 85.661 63.9512L44.6869 87.609C43.9733 88.021 43.2144 88.3494 42.4255 88.5876C42.4137 88.5924 42.4013 88.5956 42.3887 88.5972C42.3887 88.5972 42.5825 88.5235 42.9332 88.3569C43.4336 88.1196 43.9155 87.8449 44.3746 87.5353C45.5654 86.7137 47.2727 85.5334 49.35 84.1848C51.4264 82.8187 53.8728 81.2675 56.5218 79.6524C57.8512 78.8588 59.1989 78.0003 60.6107 77.1787C62.0225 76.3571 63.4359 75.5171 64.8549 74.6866C66.2963 73.865 67.7377 73.053 69.1471 72.2498C70.5565 71.4466 71.9811 70.6899 73.3377 69.942C76.0604 68.4557 78.6173 67.1176 80.8419 66.0005C81.9406 65.4399 82.9656 64.9298 83.8793 64.4958C84.7746 64.0345 85.5962 63.6838 86.2016 63.3514C86.6855 63.0804 87.1511 62.7781 87.5957 62.4465C87.8304 62.2712 87.9785 62.1422 88.0338 62.0958Z" fill="black"/>
</g>
</g>
</g>
<defs>
<filter id="filter0_d_31_1499" x="0.179688" y="0.0136719" width="111.64" height="117.985" filterUnits="userSpaceOnUse" color-interpolation-filters="sRGB">
<feFlood flood-opacity="0" result="BackgroundImageFix"/>
<feColorMatrix in="SourceAlpha" type="matrix" values="0 0 0 0 0 0 0 0 0 0 0 0 0 0 0 0 0 0 127 0" result="hardAlpha"/>
<feOffset dx="-4" dy="4"/>
<feGaussianBlur stdDeviation="12.5"/>
<feComposite in2="hardAlpha" operator="out"/>
<feColorMatrix type="matrix" values="0 0 0 0 0.980392 0 0 0 0 0.72549 0 0 0 0 0.00392157 0 0 0 0.25 0"/>
<feBlend mode="normal" in2="BackgroundImageFix" result="effect1_dropShadow_31_1499"/>
<feBlend mode="normal" in="SourceGraphic" in2="effect1_dropShadow_31_1499" result="shape"/>
</filter>
<linearGradient id="paint0_linear_31_1499" x1="43.0683" y1="61.4783" x2="43.0683" y2="21.0154" gradientUnits="userSpaceOnUse">
<stop stop-color="#FCC400"/>
<stop offset="0.179" stop-color="#FBC000"/>
<stop offset="0.34" stop-color="#F9B500"/>
<stop offset="0.493" stop-color="#F7A300"/>
<stop offset="0.641" stop-color="#F38900"/>
<stop offset="0.787" stop-color="#EE6800"/>
<stop offset="0.928" stop-color="#E84000"/>
<stop offset="1" stop-color="#E52900"/>
</linearGradient>
<linearGradient id="paint1_linear_31_1499" x1="34.6103" y1="88.9985" x2="34.6103" y2="55.6992" gradientUnits="userSpaceOnUse">
<stop stop-color="#FCC400"/>
<stop offset="0.179" stop-color="#FBC000"/>
<stop offset="0.34" stop-color="#F9B500"/>
<stop offset="0.493" stop-color="#F7A300"/>
<stop offset="0.641" stop-color="#F38900"/>
<stop offset="0.787" stop-color="#EE6800"/>
<stop offset="0.928" stop-color="#E84000"/>
<stop offset="1" stop-color="#E52900"/>
</linearGradient>
<linearGradient id="paint2_linear_31_1499" x1="64.2982" y1="60.6399" x2="64.2982" y2="29.4843" gradientUnits="userSpaceOnUse">
<stop stop-color="#FCC400"/>
<stop offset="0.179" stop-color="#FBC000"/>
<stop offset="0.34" stop-color="#F9B500"/>
<stop offset="0.493" stop-color="#F7A300"/>
<stop offset="0.641" stop-color="#F38900"/>
<stop offset="0.787" stop-color="#EE6800"/>
<stop offset="0.928" stop-color="#E84000"/>
<stop offset="1" stop-color="#E52900"/>
</linearGradient>
<linearGradient id="paint3_linear_31_1499" x1="62.4999" y1="88.9851" x2="62.4999" y2="50.3365" gradientUnits="userSpaceOnUse">
<stop stop-color="#FCC400"/>
<stop offset="0.179" stop-color="#FBC000"/>
<stop offset="0.34" stop-color="#F9B500"/>
<stop offset="0.493" stop-color="#F7A300"/>
<stop offset="0.641" stop-color="#F38900"/>
<stop offset="0.787" stop-color="#EE6800"/>
<stop offset="0.928" stop-color="#E84000"/>
<stop offset="1" stop-color="#E52900"/>
</linearGradient>
</defs>
</svg>
