<svg width="62" height="68" viewBox="0 0 62 68" fill="none" xmlns="http://www.w3.org/2000/svg">
<g filter="url(#filter0_d_57_1622)">
<path d="M15.6868 1.40434L27.9541 8.48413C27.7603 8.62267 27.5537 8.7516 27.3631 8.89974C27.3359 8.91816 27.3079 8.94539 27.2831 8.96381C27.2582 8.98223 27.203 9.01906 27.1637 9.04389C26.7569 9.32096 26.3421 9.61645 25.9449 9.93036C25.9081 9.95759 25.8649 9.99442 25.8248 10.0225L25.3539 10.382C25.0128 10.6407 24.6621 10.9177 24.3297 11.2036C24.3017 11.222 24.2833 11.2501 24.2561 11.2685C24.0959 11.3974 23.9422 11.5271 23.7852 11.6689C23.7582 11.6876 23.7332 11.7092 23.7107 11.7329C23.3904 11.9916 23.0557 12.2775 22.7418 12.573L22.7145 12.601C22.5664 12.7299 22.419 12.8597 22.2805 12.9974C21.9386 13.2929 21.5974 13.6164 21.2835 13.9391C21.2283 13.9944 21.173 14.0408 21.1178 14.0993C20.988 14.2194 20.8775 14.3395 20.767 14.4596C20.6005 14.6198 20.4467 14.7639 20.2962 14.9305C20.176 15.0498 20.0559 15.1795 19.9454 15.3085C19.9089 15.3398 19.8749 15.3737 19.8437 15.4102C19.6771 15.5855 19.5114 15.7609 19.3632 15.9363C19.3176 15.9916 19.2623 16.038 19.2159 16.0965C18.9668 16.3551 18.7266 16.6322 18.4952 16.8972C18.3566 17.063 18.2181 17.2176 18.0892 17.3865C18.0708 17.4049 18.0611 17.4234 18.0427 17.4418C17.7288 17.8013 17.4245 18.1625 17.1378 18.5405C17.0922 18.6045 17.0369 18.6694 16.9817 18.7431C16.6029 19.2235 16.2425 19.704 15.8918 20.1925C15.698 20.46 15.5042 20.737 15.3104 21.0141C15.1166 21.2912 14.9325 21.5675 14.7499 21.8445C14.5673 22.1216 14.3807 22.4051 14.2053 22.6942C14.03 22.9833 13.845 23.2547 13.6792 23.5526C13.4942 23.8385 13.3285 24.1244 13.1619 24.4199C12.9953 24.7154 12.8296 25.0013 12.6726 25.3007C12.5157 25.6002 12.3523 25.8917 12.1921 26.196C12.032 26.5003 11.8878 26.7966 11.7397 27.1009C11.5739 27.4421 11.4074 27.7744 11.2504 28.1163C11.0382 28.5776 10.8356 29.0396 10.6322 29.5097C10.448 29.9437 10.2726 30.3906 10.0965 30.8302C9.82901 31.5221 9.57115 32.2236 9.33972 32.9347C9.2108 33.3223 9.08187 33.7099 8.96175 34.1071L8.95214 34.1159C8.89689 34.3097 8.83202 34.5163 8.77677 34.7068C8.45645 34.8734 8.1305 35.0488 7.80778 35.2242C7.77975 35.2426 7.74291 35.261 7.71569 35.2794C7.023 35.6574 6.34874 36.0546 5.67527 36.4806C5.63843 36.499 5.6016 36.527 5.56476 36.5455C5.25085 36.7393 4.93694 36.9459 4.63264 37.1549C4.2907 37.3759 3.95837 37.5977 3.63566 37.8283C3.31294 38.059 2.97981 38.2904 2.65709 38.5298C2.33437 38.7693 2.01085 39.0007 1.69614 39.2505C1.40065 39.4812 1.11476 39.703 0.82808 39.9336C0.801637 39.953 0.77698 39.9747 0.754408 39.9985L0.727181 40.0265C0.717571 40.0449 0.708763 40.0449 0.699154 40.0537C0.680203 40.0609 0.663961 40.0737 0.652707 40.0906C0.643898 40.1002 0.63429 40.109 0.625481 40.109L0.615871 40.1186C0.468526 40.2387 0.329988 40.3588 0.182643 40.4781L0.182643 10.3684C0.178609 8.55228 0.653446 6.76716 1.55928 5.19304C2.46512 3.61892 3.76995 2.31148 5.34221 1.40242C6.91447 0.493439 8.69861 0.0149656 10.5147 0.0152859C12.3309 0.0156063 14.1148 0.494717 15.6868 1.40434Z" fill="url(#paint0_linear_57_1622)"/>
<path d="M8.77298 34.6991C8.71772 34.8929 8.66247 35.0867 8.61282 35.2804C7.41107 39.5049 6.80515 43.8765 6.81266 48.2685C6.81211 50.4325 6.95711 52.5942 7.24669 54.7389C7.34839 55.4772 7.4589 56.1971 7.58862 56.917C7.60704 57.0283 7.63427 57.1477 7.65269 57.259C7.81285 58.0806 7.98502 58.883 8.17882 59.6862C8.18092 59.7057 8.1872 59.7245 8.19721 59.7414C8.78419 62.1389 9.55575 64.4875 10.5051 66.7659C10.6532 67.1167 10.8102 67.4771 10.9575 67.8182C10.9768 67.8595 10.9985 67.8996 11.0224 67.9383C11.0273 67.9542 11.0335 67.9698 11.0408 67.9848C9.63968 68.0569 8.23861 67.8428 6.9229 67.3556C5.60721 66.8685 4.40455 66.1184 3.38826 65.1512C2.37197 64.184 1.56334 63.0199 1.01171 61.7299C0.460071 60.4399 0.176983 59.0511 0.179707 57.6481L0.179707 40.4696C0.327052 40.3503 0.465589 40.2293 0.612935 40.11L0.622544 40.1004C0.631353 40.1004 0.640962 40.0916 0.649771 40.082C0.661025 40.0652 0.677267 40.0523 0.696217 40.0452C0.712364 40.0246 0.730915 40.006 0.751472 39.9899C2.95474 38.1913 5.31508 36.5943 7.80404 35.218C8.12676 35.041 8.45026 34.8656 8.77298 34.6991Z" fill="url(#paint1_linear_57_1622)"/>
<path d="M27.9548 8.48424L56.6616 25.0558C57.9773 25.8073 59.1091 26.8426 59.9746 28.0863C60.84 29.3301 61.4175 30.7511 61.6649 32.2461C61.6636 32.259 61.6667 32.272 61.6737 32.2829C62.1105 34.8346 61.5809 37.4575 60.1882 39.6398C59.9112 39.418 59.6277 39.197 59.3386 38.9848C59.3273 38.9741 59.315 38.9648 59.3018 38.9568C59.2834 38.9383 59.2465 38.9103 59.2001 38.8767C52.1936 33.602 43.8617 30.3738 35.1305 29.5509C26.3993 28.7279 17.6109 30.3426 9.7424 34.2152C9.42208 34.3754 9.09696 34.5356 8.77344 34.7046C8.82869 34.5108 8.89356 34.3042 8.94881 34.1136L8.95842 34.1047C9.07854 33.7043 9.20747 33.32 9.33639 32.9324C9.56782 32.2213 9.82568 31.5198 10.0931 30.8279C10.2693 30.3851 10.4447 29.9414 10.6289 29.5073C10.8323 29.0373 11.0349 28.5753 11.2471 28.114C11.4072 27.7721 11.5674 27.4397 11.7364 27.0986C11.8845 26.7943 12.0319 26.4892 12.1888 26.1937C12.3458 25.8982 12.5027 25.594 12.6693 25.2985C12.8359 25.003 12.9896 24.7171 13.1586 24.4176C13.3275 24.1181 13.5005 23.8362 13.6759 23.5503C13.8513 23.2644 14.017 22.9682 14.202 22.6919C14.387 22.4156 14.5616 22.1193 14.7465 21.8422C14.9315 21.5652 15.1157 21.2889 15.3071 21.0118C15.4985 20.7348 15.6947 20.4577 15.8885 20.1902C16.2392 19.7009 16.6092 19.2116 16.9783 18.7408C17.0336 18.6671 17.0889 18.6022 17.1345 18.5381C17.43 18.1681 17.7255 17.799 18.0394 17.4395C18.0578 17.4211 18.0674 17.4027 18.0858 17.3842C18.2148 17.2177 18.3533 17.0638 18.4918 16.8949C18.7225 16.628 18.9627 16.3611 19.2126 16.0941C19.259 16.0388 19.3143 15.9925 19.3599 15.934C19.508 15.7586 19.6738 15.5833 19.8404 15.4079C19.8716 15.3714 19.9056 15.3374 19.9421 15.3062C20.0526 15.1773 20.1727 15.0571 20.2928 14.9282C20.4402 14.7616 20.5971 14.6143 20.7637 14.4573C20.8742 14.3372 20.9943 14.2171 21.1144 14.097C21.1697 14.0417 21.2249 13.9952 21.2802 13.9368C21.6037 13.6164 21.936 13.3025 22.2772 12.9951C22.4157 12.8573 22.5631 12.7276 22.7112 12.5987L22.7384 12.5707C23.0523 12.2848 23.3791 11.9988 23.7074 11.7306C23.73 11.7068 23.7549 11.6853 23.7819 11.6666C23.942 11.5281 24.0958 11.3983 24.2527 11.2662C24.28 11.2478 24.2984 11.2197 24.3264 11.2013C24.6587 10.9243 24.9999 10.648 25.3506 10.3797L25.8215 10.0202C25.8583 9.99213 25.9016 9.9553 25.9416 9.92807C26.3388 9.63282 26.745 9.33733 27.1604 9.04159C27.1972 9.01357 27.2405 8.98634 27.2797 8.96152C27.319 8.93669 27.3358 8.91579 27.3598 8.89737C27.5576 8.75163 27.761 8.62278 27.9548 8.48424Z" fill="url(#paint2_linear_57_1622)"/>
<path d="M30.6871 29.3364C40.9771 29.3194 50.9903 32.668 59.2001 38.8715C59.2465 38.9084 59.2802 38.9363 59.3018 38.9515C59.315 38.9595 59.3274 38.969 59.3386 38.9795C59.6253 39.1918 59.9112 39.4128 60.1883 39.6346C59.8581 40.1477 59.4808 40.6289 59.0615 41.072C59.0542 41.0803 59.048 41.0894 59.0431 41.0992H59.0343C58.3381 41.8302 57.5388 42.4553 56.6616 42.9548L15.6875 66.6093C14.9738 67.0213 14.215 67.3497 13.4261 67.5879C13.4143 67.5927 13.4019 67.5959 13.3892 67.5975C12.6259 67.8197 11.8387 67.9499 11.0445 67.985C11.0371 67.9701 11.031 67.9545 11.0261 67.9386C11.0146 67.9248 11.0052 67.9094 10.9981 67.893C10.9897 67.8664 10.9773 67.8412 10.9612 67.8185C10.8139 67.4773 10.6569 67.117 10.5088 66.7662C10.2878 66.2324 10.0742 65.6972 9.86814 65.1607C9.84011 65.0958 9.82169 65.0309 9.79446 64.9669C9.41569 63.9418 9.06494 62.8896 8.75344 61.8286C8.72621 61.7357 8.69818 61.634 8.67336 61.5419C8.65686 61.4969 8.64461 61.4506 8.63652 61.4033C8.47636 60.85 8.34103 60.2958 8.20249 59.7417C8.19248 59.7248 8.18618 59.7059 8.18407 59.6864C7.99028 58.8856 7.81492 58.0808 7.65796 57.2592C7.63954 57.1479 7.61232 57.0286 7.5939 56.9173C7.53864 56.6034 7.48259 56.2895 7.43374 55.9667C7.42413 55.93 7.41532 55.8867 7.40571 55.8378C7.35046 55.4686 7.30401 55.1083 7.24555 54.7391L7.1903 54.2868C7.13504 53.908 7.09821 53.5299 7.06137 53.1423C7.01492 52.6987 6.96847 52.2559 6.94124 51.8034C6.92283 51.5632 6.90442 51.3326 6.90442 51.0932C6.886 50.9082 6.87639 50.7143 6.86758 50.5326C6.84916 50.2643 6.83955 49.988 6.83955 49.711C6.82086 49.2305 6.81152 48.7501 6.81152 48.2696C6.81152 47.5304 6.82994 46.7921 6.86758 46.0633C6.87639 45.6293 6.90441 45.1953 6.94124 44.7709C6.97808 44.2632 7.01492 43.7644 7.07018 43.2759C7.10702 42.9059 7.15025 42.5463 7.1999 42.1859C7.22713 41.9457 7.25516 41.6966 7.292 41.4572C7.36567 40.9495 7.44868 40.4424 7.54104 39.9357C7.62112 39.428 7.72602 38.9203 7.83653 38.4214C7.94704 37.8953 8.06716 37.3603 8.19608 36.843C8.32501 36.3257 8.46435 35.802 8.61169 35.2831C8.65814 35.0893 8.7134 34.8956 8.77185 34.7018C9.09217 34.536 9.41809 34.3694 9.74081 34.2124C16.2543 30.9957 23.4227 29.327 30.6871 29.3364Z" fill="url(#paint3_linear_57_1622)"/>
<g style="mix-blend-mode:multiply" opacity="0.3">
<path d="M27.2808 8.96012C27.1888 9.03379 27.0686 9.13548 26.9301 9.24679C26.5521 9.5599 25.998 10.0035 25.3061 10.6033C24.6134 11.1847 23.8014 11.9415 22.8877 12.8095C22.0012 13.7048 21.0139 14.7386 19.9888 15.9014C18.983 17.0737 17.9124 18.3662 16.897 19.8156C14.6665 22.9328 12.7959 26.2924 11.3211 29.8303C10.9207 30.7633 10.5739 31.7138 10.2416 32.6643C10.075 33.1632 9.89967 33.6893 9.74272 34.2059C9.59537 34.6863 9.45683 35.1668 9.32791 35.6185C8.24395 39.4871 7.63331 43.4729 7.5093 47.4886C7.46089 49.3451 7.50713 51.203 7.64784 53.0549C7.78637 54.8166 7.99858 56.4791 8.26606 58.0022C8.69272 60.4734 9.30356 62.9092 10.0935 65.2894C10.5924 66.8028 10.9431 67.7261 11.0264 67.9384C11.0149 67.9245 11.0055 67.9092 10.9984 67.8927C6.4397 57.7083 5.57153 46.2538 8.54305 35.4987C11.5146 24.7435 18.1402 15.3596 27.2808 8.96012Z" fill="black"/>
</g>
<g style="mix-blend-mode:overlay" opacity="0.3">
<path d="M27.4741 8.80717C27.4461 8.83519 27.4093 8.86242 27.3628 8.90005C27.3356 8.91847 27.3076 8.9457 27.2828 8.96412C26.7943 9.29645 26.305 9.6472 25.8245 10.026L25.3536 10.3855C24.9845 10.6626 24.6153 10.9581 24.2558 11.272C24.0956 11.4009 23.9419 11.5307 23.7849 11.6724C23.4245 11.9583 23.0642 12.2722 22.7142 12.6045C22.5661 12.7334 22.4187 12.8632 22.2802 13.0009C21.9383 13.2964 21.5971 13.6199 21.2832 13.9426C21.1017 14.1055 20.9293 14.2783 20.7667 14.4599C20.4344 14.7739 20.1261 15.0878 19.8434 15.4105C19.6768 15.5859 19.5111 15.7612 19.3629 15.9366C19.0586 16.2505 18.7727 16.5772 18.4957 16.8976C18.3571 17.0633 18.2186 17.2179 18.0897 17.3868C17.7573 17.7648 17.4434 18.1436 17.1383 18.5408C17.0927 18.6048 17.0374 18.6697 16.9822 18.7434C16.6034 19.2239 16.243 19.7043 15.8923 20.1928C15.6985 20.4603 15.5047 20.7374 15.3109 21.0144C15.1171 21.2915 14.933 21.5678 14.7504 21.8449C14.5678 22.1219 14.3812 22.4054 14.2058 22.6945C14.0305 22.9836 13.8455 23.255 13.6797 23.5529C13.4947 23.8388 13.329 24.1247 13.1624 24.4202C12.9958 24.7157 12.8301 25.0016 12.6731 25.3011C12.5162 25.6006 12.3528 25.892 12.1926 26.1964C12.0325 26.5007 11.8883 26.7969 11.7402 27.1012C11.5744 27.4424 11.4079 27.7747 11.2509 28.1166C11.0387 28.5779 10.8361 29.04 10.6327 29.51C9.99896 31.0134 9.44144 32.5478 8.96225 34.1074L8.95264 34.1162C8.89739 34.31 8.83252 34.5166 8.77727 34.7072C8.72201 34.8978 8.66676 35.0947 8.61711 35.2885C7.41531 39.513 6.8094 43.8846 6.81691 48.2766C6.81635 50.4406 6.96135 52.6024 7.25094 54.747C7.35264 55.4853 7.46315 56.2052 7.59287 56.9251C7.61129 57.0364 7.63852 57.1557 7.65694 57.2671C7.81709 58.0887 7.98927 58.8911 8.18306 59.6943C8.18516 59.7138 8.19141 59.7326 8.2015 59.7495C8.7884 62.1471 9.56004 64.4956 10.5094 66.7741C10.6575 67.1248 10.8145 67.4852 10.9618 67.8263L10.7128 67.3282C10.491 66.8942 10.1682 66.2479 9.80789 65.4063C8.79969 63.0765 7.99068 60.6655 7.38947 58.1992C6.5504 54.692 6.12893 51.0979 6.13383 47.4918C6.13849 45.4515 6.27438 43.4135 6.54063 41.3906C6.8302 39.3103 7.25255 37.2508 7.80508 35.2245C7.81389 35.2149 7.81389 35.2149 7.81389 35.2061C8.11899 34.153 8.43293 33.2041 8.77487 32.1967C9.13522 31.1997 9.5132 30.2027 9.92881 29.2522C10.7316 27.3807 11.663 25.5672 12.7164 23.8244C13.6906 22.188 14.773 20.6184 15.9564 19.1262C17.0085 17.7857 18.1365 16.5067 19.3349 15.2952C19.8882 14.7346 20.4424 14.2149 20.9597 13.7264C21.5042 13.2556 22.0119 12.8119 22.5012 12.3875C23.4974 11.5939 24.3743 10.9012 25.1222 10.3751C25.8517 9.82177 26.4796 9.46141 26.884 9.19395C27.1971 8.98254 27.3909 8.85361 27.4741 8.80717Z" fill="white"/>
</g>
<g style="mix-blend-mode:multiply" opacity="0.3">
<path d="M30.6877 29.3363C40.9777 29.3193 50.9909 32.6678 59.2007 38.8713C59.2471 38.9082 59.2807 38.9362 59.3024 38.9514C59.2287 38.905 59.0349 38.7848 58.7418 38.591C58.3542 38.342 57.7809 37.9728 57.0433 37.53C55.0107 36.2899 52.8914 35.1977 50.7019 34.262C49.3541 33.6806 47.8679 33.108 46.2711 32.5803C44.5942 32.0379 42.8905 31.582 41.1668 31.2142C39.3297 30.82 37.4711 30.5333 35.6005 30.3557C34.65 30.2452 33.6899 30.2084 32.7297 30.1435C31.7423 30.1347 30.7734 30.0979 29.8036 30.1251C25.9827 30.1918 22.1822 30.6999 18.478 31.6394C16.7059 32.1006 15.0162 32.6268 13.4378 33.2081C11.8595 33.7895 10.41 34.4093 9.06232 35.0548C8.91497 35.1284 8.76763 35.1933 8.61948 35.2758C6.62601 36.2336 4.70137 37.3285 2.8594 38.5526C1.68784 39.3286 0.937503 39.8731 0.697266 40.0389C0.713413 40.0183 0.731963 39.9998 0.75252 39.9836C3.24064 37.9539 5.92823 36.1817 8.77403 34.6944C9.09435 34.5286 9.42027 34.3621 9.74299 34.2051C16.2565 30.9911 23.4244 29.3249 30.6877 29.3363Z" fill="black"/>
</g>
<g style="mix-blend-mode:overlay" opacity="0.3">
<path d="M29.7638 28.5695C30.7792 28.5423 31.785 28.5879 32.7636 28.6063C33.7702 28.6808 34.776 28.7264 35.7642 28.8562C37.69 29.0613 39.5992 29.4006 41.4778 29.8716C43.2379 30.2935 44.9678 30.8332 46.6557 31.4868C48.1697 32.0552 49.6492 32.7116 51.0865 33.4527C52.2996 34.0708 53.4797 34.7516 54.622 35.4923C55.6374 36.157 56.5143 36.748 57.2062 37.2837C57.9173 37.7818 58.425 38.2447 58.7941 38.5297C58.9791 38.6771 59.108 38.7876 59.2001 38.8709C52.1937 33.5963 43.8618 30.3681 35.1306 29.5452C26.3994 28.7222 17.6109 30.3368 9.74245 34.2095C9.42213 34.3696 9.09701 34.5298 8.77349 34.6987C5.92767 36.1861 3.24007 37.9582 0.751953 39.988C0.832032 39.9079 0.973772 39.7846 1.13954 39.6276C1.49028 39.3145 1.98918 38.8525 2.67225 38.3175C4.54955 36.8023 6.55022 35.4467 8.65337 34.2647C8.75507 34.2095 8.84716 34.1542 8.94886 34.1046L8.95847 34.0958C10.269 33.3671 11.6185 32.7108 13.0009 32.1298C14.6665 31.4193 16.3744 30.8119 18.1147 30.3112C19.9785 29.7775 21.8747 29.3643 23.7915 29.074C25.7696 28.7801 27.7644 28.6115 29.7638 28.5695Z" fill="white"/>
</g>
<g style="mix-blend-mode:overlay" opacity="0.25">
<path d="M14.7629 3.00173L24.5661 8.66013L24.2242 8.91878C23.8366 9.21347 23.4306 9.537 23.043 9.87974C22.9133 9.98144 22.7564 10.1112 22.5994 10.2585C22.1947 10.5733 21.8065 10.9091 21.4366 11.2643C21.3165 11.366 21.1692 11.5045 21.021 11.6431C20.6703 11.9474 20.3195 12.2837 19.9968 12.612C19.7934 12.7967 19.6088 12.9814 19.4427 13.1662C19.0919 13.5073 18.7692 13.8396 18.4553 14.1816C18.3168 14.3289 18.1502 14.5138 17.9932 14.6892C17.6793 15.0215 17.3846 15.3539 17.0892 15.6951L16.941 15.8616C16.8489 15.9818 16.7568 16.0923 16.6647 16.2028C16.314 16.6032 15.9905 16.9972 15.6677 17.412L15.5012 17.6242C15.132 18.1047 14.754 18.6028 14.3937 19.1105C14.1999 19.3691 14.0149 19.6462 13.8211 19.9112C13.6001 20.2316 13.4151 20.511 13.2309 20.792C13.0091 21.1124 12.8153 21.4199 12.6215 21.7338C12.4614 21.9741 12.2708 22.2784 12.0954 22.6011C11.9016 22.8966 11.7263 23.2016 11.5509 23.5155L11.4308 23.7182C11.3018 23.9584 11.1633 24.1891 11.0304 24.4293C10.8702 24.7064 10.71 25.0195 10.5411 25.343C10.3937 25.6201 10.2456 25.9243 10.0982 26.2286L9.96932 26.497C9.88924 26.6627 9.80275 26.8293 9.72908 26.995C6.54361 29.6802 3.92643 32.9745 2.03111 36.6846L2.0215 36.6942L2.0215 10.3594C2.01846 8.86745 2.4089 7.4012 3.15344 6.10833C3.89798 4.81545 4.97029 3.74183 6.26221 2.99573C7.55412 2.24955 9.01998 1.85733 10.5119 1.85853C12.0037 1.85973 13.4689 2.25428 14.7597 3.00253L14.7629 3.00173Z" fill="white"/>
</g>
<g style="mix-blend-mode:overlay" opacity="0.25">
<path d="M51.5752 24.2504C35.6987 17.41 24.2986 18.7946 16.4717 22.5791C16.591 22.4037 16.7023 22.238 16.8224 22.0714C17.025 21.7767 17.21 21.5181 17.383 21.2706C17.7241 20.7998 18.0749 20.3289 18.424 19.8861C18.424 19.8861 18.5906 19.673 18.6362 19.609C18.8668 19.3135 19.1623 18.9531 19.4674 18.6024L19.5411 18.5223C19.6148 18.4302 19.6885 18.3381 19.7629 18.2548L19.9103 18.0795C20.1409 17.8024 20.3996 17.5077 20.6766 17.221L20.7687 17.1289C20.8977 16.9816 21.0362 16.8334 21.1747 16.6765C21.4702 16.3626 21.7473 16.0767 22.0516 15.7812L22.1317 15.7011C22.2508 15.5652 22.3773 15.4358 22.5104 15.3135C22.8796 14.954 23.1839 14.6673 23.4978 14.3814L23.5779 14.3077C23.6819 14.2019 23.7929 14.1032 23.9102 14.0122C24.2794 13.6703 24.6117 13.3716 24.9441 13.0985C25.1378 12.9384 25.2764 12.8215 25.4149 12.711C25.7747 12.4056 26.1255 12.1194 26.4672 11.8525L26.9284 11.5018C27.2976 11.2335 27.6667 10.9564 28.0495 10.6802L51.5752 24.2504Z" fill="white"/>
</g>
<g style="mix-blend-mode:overlay" opacity="0.5">
<path d="M15.687 1.40436L27.9543 8.48415L56.6611 25.0557C57.9769 25.8073 59.1086 26.8425 59.9741 28.0863C60.8396 29.3301 61.4171 30.7511 61.6644 32.246C61.618 32.0522 61.5443 31.7656 61.4426 31.4156C61.0341 30.0391 60.3407 28.764 59.4072 27.6729C58.4738 26.5819 57.3212 25.6995 56.0245 25.083C54.2155 24.1044 52.1751 22.9969 49.9601 21.7997C45.5205 19.3717 40.3698 16.5105 34.8588 13.409C32.3667 11.9964 29.7914 10.547 27.1712 9.06073L27.1624 9.05192C27.1485 9.04967 27.1357 9.04318 27.1255 9.0335C26.8757 8.89496 26.6362 8.75642 26.3864 8.61789C23.5164 6.96585 20.5895 5.2954 17.6642 3.61534L15.4852 2.35009C14.8078 1.9521 14.09 1.6273 13.3439 1.38113C11.9001 0.910428 10.3629 0.800478 8.86667 1.06082C7.38046 1.33092 5.97561 1.93705 4.75942 2.83297C3.57162 3.7144 2.61243 4.8677 1.96226 6.19629C1.3332 7.48308 0.986445 8.88943 0.945254 10.3212C0.918027 11.8427 0.889999 13.3297 0.871581 14.7704C0.816326 17.6684 0.761072 20.4095 0.705817 22.9296C0.604117 27.9882 0.437552 32.1972 0.35507 35.1417L0.179698 39.7759L0.179698 10.358C0.177171 8.54229 0.65327 6.75797 1.56002 5.18481C2.46677 3.61174 3.77213 2.30541 5.34458 1.39755C6.91703 0.489612 8.70099 0.0122593 10.5167 0.0134605C12.3324 0.0145816 14.1158 0.494336 15.687 1.40436Z" fill="white"/>
</g>
<g style="mix-blend-mode:multiply" opacity="0.3">
<path d="M59.0338 41.0957C58.3376 41.8266 57.5382 42.4517 56.661 42.9512L15.6869 66.6089C14.9733 67.021 14.2144 67.3493 13.4255 67.5875C13.4137 67.5923 13.4013 67.5955 13.3887 67.5971C13.3887 67.5971 13.5825 67.5234 13.9332 67.3569C14.4336 67.1195 14.9155 66.8449 15.3746 66.5353C16.5654 65.7137 18.2727 64.5333 20.35 63.1848C22.4264 61.8186 24.8728 60.2675 27.5218 58.6523C28.8512 57.8587 30.1989 57.0003 31.6107 56.1786C33.0225 55.357 34.4359 54.517 35.8549 53.6866C37.2963 52.865 38.7377 52.053 40.1471 51.2498C41.5565 50.4466 42.9811 49.6898 44.3377 48.9419C47.0604 47.4556 49.6173 46.1175 51.8419 45.0004C52.9406 44.4398 53.9656 43.9297 54.8793 43.4957C55.7746 43.0345 56.5962 42.6837 57.2016 42.3514C57.6855 42.0803 58.1511 41.778 58.5957 41.4465C58.8304 41.2711 58.9785 41.1422 59.0338 41.0957Z" fill="black"/>
</g>
</g>
<defs>
<filter id="filter0_d_57_1622" x="-3.82031" y="0.0134277" width="69.6436" height="75.985" filterUnits="userSpaceOnUse" color-interpolation-filters="sRGB">
<feFlood flood-opacity="0" result="BackgroundImageFix"/>
<feColorMatrix in="SourceAlpha" type="matrix" values="0 0 0 0 0 0 0 0 0 0 0 0 0 0 0 0 0 0 127 0" result="hardAlpha"/>
<feOffset dy="4"/>
<feGaussianBlur stdDeviation="2"/>
<feComposite in2="hardAlpha" operator="out"/>
<feColorMatrix type="matrix" values="0 0 0 0 0 0 0 0 0 0 0 0 0 0 0 0 0 0 0.25 0"/>
<feBlend mode="normal" in2="BackgroundImageFix" result="effect1_dropShadow_57_1622"/>
<feBlend mode="normal" in="SourceGraphic" in2="effect1_dropShadow_57_1622" result="shape"/>
</filter>
<linearGradient id="paint0_linear_57_1622" x1="14.0683" y1="40.4781" x2="14.0683" y2="0.0152855" gradientUnits="userSpaceOnUse">
<stop stop-color="#FCC400"/>
<stop offset="0.179" stop-color="#FBC000"/>
<stop offset="0.34" stop-color="#F9B500"/>
<stop offset="0.493" stop-color="#F7A300"/>
<stop offset="0.641" stop-color="#F38900"/>
<stop offset="0.787" stop-color="#EE6800"/>
<stop offset="0.928" stop-color="#E84000"/>
<stop offset="1" stop-color="#E52900"/>
</linearGradient>
<linearGradient id="paint1_linear_57_1622" x1="5.61026" y1="67.9984" x2="5.61026" y2="34.6991" gradientUnits="userSpaceOnUse">
<stop stop-color="#FCC400"/>
<stop offset="0.179" stop-color="#FBC000"/>
<stop offset="0.34" stop-color="#F9B500"/>
<stop offset="0.493" stop-color="#F7A300"/>
<stop offset="0.641" stop-color="#F38900"/>
<stop offset="0.787" stop-color="#EE6800"/>
<stop offset="0.928" stop-color="#E84000"/>
<stop offset="1" stop-color="#E52900"/>
</linearGradient>
<linearGradient id="paint2_linear_57_1622" x1="35.2982" y1="39.6398" x2="35.2982" y2="8.48424" gradientUnits="userSpaceOnUse">
<stop stop-color="#FCC400"/>
<stop offset="0.179" stop-color="#FBC000"/>
<stop offset="0.34" stop-color="#F9B500"/>
<stop offset="0.493" stop-color="#F7A300"/>
<stop offset="0.641" stop-color="#F38900"/>
<stop offset="0.787" stop-color="#EE6800"/>
<stop offset="0.928" stop-color="#E84000"/>
<stop offset="1" stop-color="#E52900"/>
</linearGradient>
<linearGradient id="paint3_linear_57_1622" x1="33.4999" y1="67.985" x2="33.4999" y2="29.3364" gradientUnits="userSpaceOnUse">
<stop stop-color="#FCC400"/>
<stop offset="0.179" stop-color="#FBC000"/>
<stop offset="0.34" stop-color="#F9B500"/>
<stop offset="0.493" stop-color="#F7A300"/>
<stop offset="0.641" stop-color="#F38900"/>
<stop offset="0.787" stop-color="#EE6800"/>
<stop offset="0.928" stop-color="#E84000"/>
<stop offset="1" stop-color="#E52900"/>
</linearGradient>
</defs>
</svg>
