<svg width="113" height="119" viewBox="0 0 113 119" fill="none" xmlns="http://www.w3.org/2000/svg">
<g filter="url(#filter0_d_51_1603)">
<path d="M44.7222 22.4002L56.6065 29.2371C51.5895 37.0362 48.9331 46.1118 48.955 55.3775C48.955 55.8491 48.9647 56.3109 48.9745 56.7817C48.9745 56.91 48.9851 57.0471 48.9851 57.1754C48.9851 57.3036 48.9948 57.4302 49.0144 57.5585C49.0144 57.8531 49.0339 58.138 49.0534 58.4229C49.0632 58.6389 49.073 58.8548 49.0933 59.0723C49.1226 59.4359 49.1519 59.7898 49.1918 60.1535L49.2211 60.4781C49.2504 60.7923 49.2903 61.1064 49.3294 61.4213C49.3375 61.5234 49.3508 61.625 49.3693 61.7257C49.3986 61.9124 49.4181 62.1088 49.4507 62.2939C49.4527 62.3469 49.4595 62.3996 49.471 62.4514C49.4906 62.569 49.5101 62.6867 49.5296 62.7947C49.5492 63.0106 49.5891 63.2273 49.6281 63.444C49.6477 63.5617 49.668 63.6697 49.6875 63.7874C49.6859 63.8045 49.6893 63.8217 49.6973 63.8369L49.7567 64.1811C49.7763 64.2988 49.7958 64.4067 49.8251 64.5244C49.9065 64.9765 50.0026 65.4286 50.1011 65.8799C50.1995 66.3028 50.298 66.7444 50.4063 67.1673C50.4755 67.4424 50.5447 67.707 50.6236 67.9725C50.7019 68.3282 50.8006 68.6791 50.9191 69.0236C50.9308 69.0869 50.9471 69.1493 50.968 69.2103C50.9875 69.2695 50.9981 69.3182 51.0176 69.3677L51.0762 69.5739C51.1259 69.7403 51.1747 69.9075 51.2341 70.0609C51.2634 70.1591 51.2935 70.2574 51.3229 70.3458C51.3299 70.3837 51.3431 70.4202 51.3619 70.4538C51.4604 70.7785 51.5687 71.0926 51.6875 71.4165C51.7461 71.5934 51.8055 71.7703 51.8747 71.9367C51.9732 72.2322 52.0913 72.5268 52.2003 72.8117C52.223 72.8822 52.2501 72.951 52.2817 73.0179C52.3306 73.1551 52.39 73.3028 52.4445 73.44C52.4746 73.5285 52.5137 73.6072 52.543 73.6835C52.6814 74.0366 52.8393 74.3807 52.9866 74.7249C52.9866 74.7346 52.9866 74.7346 52.9964 74.7444C53.2032 75.2354 53.4303 75.7184 53.6566 76.1884C53.8633 76.6202 54.0701 77.0528 54.2972 77.4749C54.3664 77.6129 54.4445 77.7598 54.5235 77.897C54.7009 78.2411 54.8881 78.5853 55.0753 78.9189C55.1641 79.0861 55.2528 79.2436 55.3513 79.4002C55.5141 79.6949 55.6956 79.9895 55.8731 80.2841C55.8964 80.3323 55.9237 80.3784 55.9545 80.4221C55.9713 80.4428 55.9845 80.4661 55.9935 80.4911C56.1905 80.8247 56.4078 81.1583 56.6146 81.483L49.7681 85.4222C49.738 85.4416 49.6989 85.4611 49.6395 85.4911L44.7222 88.3215C43.1304 89.2399 41.3241 89.7242 39.4852 89.7257C37.6461 89.7273 35.839 89.2462 34.2456 88.3306C32.6522 87.415 31.3285 86.0972 30.4077 84.5098C29.4869 82.9224 29.0014 81.1212 29 79.2874V31.457C29 31.2712 29 31.0942 29.0098 30.9075V30.888C29.0179 30.8327 29.0211 30.7768 29.0195 30.7208C29.1447 28.9522 29.7188 27.2444 30.6879 25.7578C31.6569 24.2712 32.9892 23.0548 34.5593 22.2228C36.1295 21.3908 37.886 20.9706 39.6638 21.0016C41.4416 21.0326 43.1822 21.5139 44.7222 22.4002Z" fill="url(#paint0_linear_51_1603)"/>
<path d="M56.6036 29.2368L57.5885 29.805L60.2975 31.3569L62.1697 32.4381H62.1794C62.1892 32.4478 62.1892 32.4576 62.199 32.4576L86.2654 46.3197C87.8573 47.2378 89.1791 48.5574 90.0979 50.146C91.0168 51.7345 91.5005 53.5361 91.5005 55.3699C91.5005 57.2037 91.0168 59.0054 90.0979 60.5939C89.1791 62.1825 87.8573 63.502 86.2654 64.4203L84.3444 65.5307L84.3248 65.5404C84.3142 65.5455 84.3043 65.552 84.2955 65.5598L59.4998 79.818L56.6036 81.4876C56.3968 81.1629 56.1795 80.8293 55.9825 80.4957C55.9735 80.4707 55.9603 80.4474 55.9435 80.4268C55.9127 80.383 55.8855 80.3369 55.8621 80.2888C55.6846 79.9942 55.5072 79.6995 55.3403 79.4049C55.2418 79.2482 55.1531 79.0908 55.0643 78.9236C54.8771 78.5899 54.6899 78.2457 54.5125 77.9016C54.4311 77.7644 54.3554 77.6175 54.2862 77.4795C54.0591 77.0574 53.8523 76.6249 53.6456 76.193C53.4193 75.7214 53.1922 75.24 52.9854 74.749C52.9756 74.7392 52.9756 74.7392 52.9756 74.7295C52.8283 74.3853 52.6704 74.0412 52.532 73.6882C52.5027 73.607 52.4637 73.5307 52.4335 73.4447C52.3749 73.3075 52.3155 73.1597 52.2707 73.0225C52.2392 72.9556 52.212 72.8868 52.1893 72.8163C52.0811 72.5314 51.963 72.2368 51.8637 71.9413C51.7946 71.7749 51.7351 71.5981 51.6765 71.4211C51.5577 71.0964 51.4494 70.7823 51.3509 70.4585C51.3321 70.4248 51.3189 70.3883 51.3119 70.3505C51.2826 70.262 51.2524 70.1638 51.2231 70.0656C51.1637 69.9081 51.1149 69.7409 51.0652 69.5786L51.0066 69.3724C50.9871 69.3229 50.9765 69.2742 50.957 69.2149C50.9362 69.154 50.9198 69.0916 50.9081 69.0283C50.799 68.6841 50.7005 68.3309 50.6126 67.977C50.5312 67.7116 50.4645 67.4471 50.3953 67.1719C50.287 66.7393 50.1885 66.3172 50.0901 65.8846C49.9916 65.4333 49.8931 64.9812 49.8141 64.5291C49.7848 64.4114 49.7653 64.3034 49.7457 64.1857L49.6863 63.8416C49.6784 63.8263 49.675 63.8091 49.6765 63.7921C49.657 63.6744 49.6367 63.5663 49.6171 63.4486C49.5585 63.1142 49.5089 62.7904 49.46 62.4568C49.4486 62.405 49.4417 62.3523 49.4397 62.2993C49.4104 62.1126 49.3811 61.9162 49.3583 61.7312C49.3398 61.6305 49.3265 61.5288 49.3184 61.4268L49.2891 61.2003C49.2598 60.9649 49.2297 60.719 49.2077 60.4835L49.1784 60.1589C49.1385 59.7953 49.1092 59.4414 49.0799 59.0778C49.0595 58.8619 49.0498 58.646 49.04 58.4284C49.0302 58.2109 49.0107 57.986 49.0009 57.7701C48.9961 57.7015 48.9961 57.6326 49.0009 57.5639C48.9814 57.3082 48.9716 57.0525 48.9611 56.7871C48.9513 56.3163 48.9415 55.8546 48.9415 55.383C48.9217 46.1143 51.5819 37.0364 56.6036 29.2368Z" fill="url(#paint1_linear_51_1603)"/>
<g style="mix-blend-mode:multiply" opacity="0.1">
<path d="M56.6026 29.2367L57.5875 29.805L60.2965 31.3569C51.5982 51.6036 56.1395 70.5331 59.4988 79.8147L56.6026 81.4843C56.3959 81.1596 56.1785 80.826 55.9815 80.4924C55.9725 80.4674 55.9593 80.4441 55.9425 80.4235C55.9117 80.3798 55.8845 80.3336 55.8611 80.2854C55.6836 79.9908 55.5062 79.6961 55.3393 79.4015C55.2408 79.2449 55.1521 79.0874 55.0634 78.9202C54.8761 78.5866 54.6889 78.2424 54.5115 77.8983C54.4301 77.7611 54.3544 77.6142 54.2852 77.4762C54.0581 77.0541 53.8513 76.6215 53.6446 76.1897C53.4183 75.7181 53.1912 75.2367 52.9844 74.7457C52.9747 74.7359 52.9747 74.7359 52.9747 74.7262C52.8273 74.382 52.6694 74.0379 52.531 73.6848C52.5017 73.6036 52.4627 73.5273 52.4325 73.4413C52.3739 73.3041 52.3145 73.1564 52.2698 73.0192C52.2382 72.9523 52.211 72.8835 52.1884 72.813C52.0801 72.5281 51.9621 72.2335 51.8628 71.938C51.7936 71.7716 51.7341 71.5947 51.6755 71.4177C51.5567 71.0931 51.4484 70.7789 51.3499 70.4551C51.3311 70.4215 51.318 70.385 51.3109 70.3471C51.2816 70.2586 51.2514 70.1604 51.2221 70.0622C51.1627 69.9048 51.1139 69.7375 51.0642 69.5752L51.0056 69.369C50.9861 69.3195 50.9755 69.2708 50.956 69.2116C50.9351 69.1506 50.9189 69.0883 50.9071 69.0249C50.7981 68.6807 50.6996 68.3276 50.6117 67.9737C50.5303 67.7083 50.4635 67.4437 50.3943 67.1686C50.2861 66.7359 50.1876 66.3139 50.0891 65.8813C49.9906 65.43 49.8921 64.9778 49.8131 64.5257C49.7838 64.408 49.7643 64.3 49.7448 64.1824L49.6853 63.8382C49.6774 63.823 49.674 63.8058 49.6756 63.7887C49.6161 63.4551 49.5575 63.1312 49.5177 62.7968C49.4981 62.6888 49.4786 62.5712 49.459 62.4535C49.4476 62.4018 49.4407 62.349 49.4387 62.296C49.4094 62.1093 49.3801 61.9129 49.3573 61.7278C49.3388 61.6272 49.3255 61.5255 49.3174 61.4234L49.2881 61.197C49.2588 60.9616 49.2287 60.7156 49.2067 60.4802L49.1774 60.1556C49.1375 59.7919 49.1082 59.438 49.0789 59.0744C49.0586 58.8585 49.0488 58.6426 49.039 58.425C49.0293 58.2075 49.0097 57.9827 49 57.7668L48.9707 57.1775C48.9707 57.0492 48.9601 56.9121 48.9601 56.7838C48.9503 56.313 48.9405 55.8512 48.9405 55.3796C48.9213 46.1121 51.5815 37.0354 56.6026 29.2367Z" fill="black"/>
</g>
<g style="mix-blend-mode:screen" opacity="0.3">
<path d="M32.9891 27.6268C32.9793 32.5968 33.4522 71.7429 52.5248 80.4369L43.2453 85.7811C42.1017 86.4395 40.8043 86.7863 39.4837 86.7866C38.1631 86.7868 36.8657 86.4406 35.7217 85.7826C34.5778 85.1246 33.6276 84.178 32.9666 83.0379C32.3057 81.8979 31.9571 80.6044 31.9561 79.2876L31.9561 31.4572C31.9509 30.1113 32.3076 28.7886 32.9891 27.6268Z" fill="white"/>
</g>
<g style="mix-blend-mode:multiply" opacity="0.3">
<path d="M44.7221 22.4002L56.6063 29.2371L57.5912 29.8052L57.5619 29.8548C56.9808 30.7882 56.4224 31.7306 55.8868 32.6957C55.3748 33.6697 54.8823 34.651 54.4216 35.6429L53.7704 37.1559L53.1599 38.6884C52.7757 39.72 52.4208 40.7606 52.096 41.802C51.7807 42.8631 51.495 43.924 51.2389 44.9846C51.002 46.0658 50.7952 47.1364 50.6186 48.2265C50.2535 50.3998 50.0408 52.5959 49.9821 54.7987C49.9528 55.8596 49.9528 57.0479 49.9821 58.1088C50.0211 59.1997 50.0903 60.3093 50.2084 61.4099C50.3069 62.5098 50.4745 63.6015 50.6422 64.7005C50.8099 65.7996 51.0362 66.8815 51.2934 67.9619C52.3245 72.2917 53.886 76.4785 55.9429 80.4278C55.3121 79.5236 54.7114 78.6104 54.1399 77.6478C53.5685 76.6851 53.0272 75.6729 52.525 74.6518C51.5269 72.6033 50.6869 70.4819 50.0122 68.306C49.6776 67.2151 49.3724 66.1145 49.1168 65.0049C48.8612 63.8953 48.6439 62.7557 48.4762 61.6259C48.3085 60.496 48.1709 59.3531 48.0692 58.207C47.9707 57.0187 47.9316 55.9578 47.9316 54.7687C47.92 52.469 48.0712 50.1714 48.3842 47.8929C48.5421 46.7565 48.7586 45.6137 48.9955 44.4936C49.2519 43.3645 49.5368 42.2541 49.8526 41.1437C50.1872 40.0341 50.5519 38.9432 50.9458 37.8629C51.3593 36.7825 51.8127 35.7216 52.2954 34.6705C52.7781 33.6194 53.3105 32.6072 53.8615 31.5958C54.236 30.9278 54.6495 30.2793 55.0443 29.6307L48.4933 25.7411L44.74 23.4619C44.4242 23.2655 44.1189 23.0885 43.8234 22.9416C43.5331 22.7784 43.2342 22.6306 42.928 22.4992L41.9822 22.1453C41.6566 22.0569 41.322 21.9984 40.9973 21.9197C40.6669 21.8443 40.3304 21.7984 39.992 21.7825C39.6565 21.73 39.3162 21.7166 38.9777 21.7427C38.2953 21.7574 37.6159 21.8366 36.9484 21.9789L35.9529 22.2736C35.6273 22.3815 35.3131 22.5382 34.9875 22.6567C34.6723 22.7974 34.3664 22.9582 34.0718 23.138C33.7603 23.3004 33.4665 23.4947 33.1951 23.7176C32.6276 24.1293 32.1027 24.5964 31.6282 25.1121L30.9485 25.9278L30.3787 26.8312C30.1946 27.1367 30.0333 27.4551 29.896 27.7841C29.7342 28.1022 29.6023 28.4345 29.5021 28.7768C29.2788 29.465 29.1154 30.1711 29.0137 30.8872C29.0218 30.8319 29.025 30.7759 29.0234 30.72C29.1491 28.9521 29.7233 27.2449 30.6922 25.759C31.6611 24.273 32.9928 23.0571 34.5624 22.2253C36.1319 21.3935 37.8877 20.9731 39.6648 21.0037C41.442 21.0343 43.1822 21.5148 44.7221 22.4002Z" fill="black"/>
</g>
<g style="mix-blend-mode:screen" opacity="0.6">
<path d="M29 38.4027C29 38.4027 29.394 42.6957 29.6797 49.1299C29.827 52.3418 29.9556 56.0942 30.0443 60.1121C30.0737 62.1259 30.1428 64.2087 30.1428 66.3207C30.1428 68.4327 30.1721 70.5739 30.1819 72.716C30.1721 74.8572 30.1526 77.0082 30.1428 79.1202C30.0807 80.9875 30.5781 82.8308 31.5714 84.4149C32.4726 85.8422 33.7251 87.0159 35.2098 87.8241C36.6944 88.6324 38.3618 89.0484 40.0532 89.0325H40.6148C40.7923 89.0122 40.9787 88.983 41.1561 88.9636C41.5053 88.9285 41.8513 88.8661 42.1907 88.7769C42.5261 88.6957 42.8419 88.6097 43.1561 88.5334C43.4817 88.3962 43.7869 88.2687 44.0922 88.1405C45.2318 87.6299 46.29 87.0699 47.1259 86.6795C48.4071 86.0707 49.274 85.6673 49.6281 85.5009L44.7222 88.3215C43.1304 89.2399 41.3241 89.7242 39.4852 89.7257C37.6461 89.7273 35.839 89.2462 34.2456 88.3306C32.6522 87.415 31.3285 86.0972 30.4077 84.5098C29.4869 82.9224 29.0014 81.1212 29 79.2874V38.4027Z" fill="white"/>
</g>
<g style="mix-blend-mode:multiply" opacity="0.3">
<path d="M62.1982 32.4598L86.2647 46.3202C87.8566 47.2385 89.1783 48.558 90.0972 50.1466C91.016 51.7352 91.4998 53.5367 91.4998 55.3705C91.4998 57.2044 91.016 59.006 90.0972 60.5946C89.1783 62.1831 87.8566 63.5027 86.2647 64.4209L84.3436 65.5313C84.5016 65.403 85.1218 64.9314 86.1067 64.2326C86.7662 63.7277 87.3826 63.1692 87.9496 62.5629C88.6441 61.7809 89.2182 60.9003 89.6533 59.9501C90.134 58.8366 90.4269 57.6516 90.5202 56.4428C90.5886 55.1164 90.4015 53.7891 89.9691 52.5329C89.5134 51.2145 88.7697 50.0135 87.7917 49.0167C87.2888 48.5037 86.7268 48.052 86.1173 47.6709L85.6143 47.3365L85.1519 47.0808L84.0872 46.4818C82.6888 45.6572 81.2896 44.8316 79.9107 44.0264C78.5318 43.2212 77.1919 42.3754 75.8912 41.58C73.2905 39.9882 70.8965 38.4559 68.8575 37.1003C65.035 34.5817 62.5035 32.6855 62.1982 32.4598Z" fill="black"/>
</g>
</g>
<defs>
<filter id="filter0_d_51_1603" x="0" y="0" width="112.5" height="118.726" filterUnits="userSpaceOnUse" color-interpolation-filters="sRGB">
<feFlood flood-opacity="0" result="BackgroundImageFix"/>
<feColorMatrix in="SourceAlpha" type="matrix" values="0 0 0 0 0 0 0 0 0 0 0 0 0 0 0 0 0 0 127 0" result="hardAlpha"/>
<feOffset dx="-4" dy="4"/>
<feGaussianBlur stdDeviation="12.5"/>
<feComposite in2="hardAlpha" operator="out"/>
<feColorMatrix type="matrix" values="0 0 0 0 0.301961 0 0 0 0 0.921569 0 0 0 0 0.972549 0 0 0 0.3 0"/>
<feBlend mode="normal" in2="BackgroundImageFix" result="effect1_dropShadow_51_1603"/>
<feBlend mode="normal" in="SourceGraphic" in2="effect1_dropShadow_51_1603" result="shape"/>
</filter>
<linearGradient id="paint0_linear_51_1603" x1="28.3096" y1="55.3629" x2="50.9812" y2="55.3629" gradientUnits="userSpaceOnUse">
<stop stop-color="#00AFD6"/>
<stop offset="0.085" stop-color="#00B7DA"/>
<stop offset="0.466" stop-color="#00D7EE"/>
<stop offset="0.785" stop-color="#00EBFA"/>
<stop offset="1" stop-color="#00F3FF"/>
</linearGradient>
<linearGradient id="paint1_linear_51_1603" x1="49.3245" y1="55.3622" x2="90.5217" y2="55.3622" gradientUnits="userSpaceOnUse">
<stop stop-color="#00AFD6"/>
<stop offset="0.085" stop-color="#00B7DA"/>
<stop offset="0.466" stop-color="#00D7EE"/>
<stop offset="0.785" stop-color="#00EBFA"/>
<stop offset="1" stop-color="#00F3FF"/>
</linearGradient>
</defs>
</svg>
